<?xml version="1.0" encoding="iso-8859-1"?>
<!-- Generator: Adobe Illustrator 19.0.0, SVG Export Plug-In . SVG Version: 6.00 Build 0)  -->
<svg version="1.1" id="Layer_1" xmlns="http://www.w3.org/2000/svg" xmlns:xlink="http://www.w3.org/1999/xlink" x="0px" y="0px"
	 height="32" width="32" stroke-opacity="0" viewBox="0 0 512.3 512.3" style="enable-background:new 0 0 512.3 512.3;" xml:space="preserve">
<path style="fill:#FFD15C;" d="M282.816,25.75L25.75,282.816c-14.933,14.933-32,59.733-23.467,81.067
	C33.216,441.75,70.55,478.016,148.416,510.016c21.333,8.533,66.133-8.533,81.067-23.467L486.55,229.483
	c14.933-14.933,32-59.733,23.467-81.067C479.083,70.55,441.75,33.216,363.883,2.283C342.55-6.25,297.75,10.816,282.816,25.75z"/>
<path style="opacity:0.1;fill:#231F20;enable-background:new    ;" d="M131.35,502.55l371.2-371.2
	c-13.867-30.933-29.867-54.4-49.067-74.667l-396.8,396.8C75.883,472.683,99.35,488.683,131.35,502.55z"/>
<path style="fill:#FF7058;" d="M48.15,479.083L33.216,464.15c-21.333-21.333-21.333-57.6,0-78.933l352-352
	c21.333-21.333,57.6-21.333,78.933,0l14.933,14.933c21.333,21.333,21.333,57.6,0,78.933l-352,352
	C105.75,500.416,70.55,500.416,48.15,479.083z"/>
<path style="fill:#F2F2F2;" d="M48.15,464.15c-3.2-3.2-5.333-8.533-5.333-13.867c0-10.667,8.533-19.2,19.2-19.2
	c20.267,0,36.267-16,36.267-36.267s7.467-38.4,21.333-52.267c13.867-13.867,33.067-21.333,52.267-21.333
	c20.267,0,36.267-16,36.267-36.267s7.467-38.4,21.333-52.267c13.867-13.867,33.067-21.333,52.267-21.333
	c20.267,0,36.267-16,36.267-36.267s7.467-38.4,21.333-52.267s33.067-21.333,52.267-21.333c20.267,0,36.267-16,36.267-36.267
	c0-10.667,8.533-19.2,19.2-19.2c10.667,0,19.2,8.533,19.2,19.2c0,41.6-33.067,74.667-74.667,74.667c-9.6,0-19.2,4.267-25.6,10.667
	c-6.4,6.4-10.667,16-10.667,25.6c0,41.6-33.067,74.667-74.667,74.667c-9.6,0-19.2,4.267-25.6,10.667c-6.4,6.4-10.667,16-10.667,25.6
	c0,41.6-33.067,74.667-74.667,74.667c-9.6,0-19.2,4.267-25.6,10.667c-6.4,6.4-10.667,16-10.667,25.6
	c0,41.6-33.067,74.667-74.667,74.667C56.683,469.483,51.35,467.35,48.15,464.15z"/>
<g>
</g>
<g>
</g>
<g>
</g>
<g>
</g>
<g>
</g>
<g>
</g>
<g>
</g>
<g>
</g>
<g>
</g>
<g>
</g>
<g>
</g>
<g>
</g>
<g>
</g>
<g>
</g>
<g>
</g>
</svg>
